<?xml version="1.0" standalone="no"?>
<!DOCTYPE svg PUBLIC "-//W3C//DTD SVG 20010904//EN"
 "http://www.w3.org/TR/2001/REC-SVG-20010904/DTD/svg10.dtd">
<svg version="1.0" xmlns="http://www.w3.org/2000/svg"
 width="186.000000pt" height="50.000000pt" viewBox="0 0 186.000000 50.000000"
 preserveAspectRatio="xMidYMid meet">
<metadata>
Created by potrace 1.15, written by Peter Selinger 2001-2017
</metadata>
<g transform="translate(0.000000,50.000000) scale(0.100000,-0.100000)"
fill="#000000" stroke="none">
<path d="M356 363 l-34 -68 -28 58 c-24 49 -32 57 -56 57 l-28 0 42 -85 42
-85 -22 -46 c-13 -26 -26 -43 -30 -39 -4 3 -36 64 -72 133 -58 114 -68 127
-94 130 -15 2 -27 0 -24 -5 2 -4 40 -81 86 -170 73 -145 85 -163 107 -163 20
0 30 10 50 50 14 28 29 49 34 46 4 -3 16 -23 26 -46 14 -32 23 -40 44 -40 24
0 33 14 104 155 l77 155 -28 0 c-25 0 -32 -10 -87 -120 -33 -66 -62 -120 -66
-120 -3 0 -14 18 -24 41 l-19 40 42 85 c23 46 42 89 42 94 0 6 -11 10 -25 10
-21 0 -30 -11 -59 -67z"/>
<path d="M650 245 l0 -175 30 0 c17 0 30 4 30 9 0 5 12 30 26 56 l27 47 31
-58 c27 -51 35 -59 62 -62 l32 -3 -48 93 -48 92 39 78 c21 43 39 80 39 83 0 4
-12 5 -27 3 -25 -3 -35 -16 -80 -108 l-52 -105 0 113 -1 112 -30 0 -30 0 0
-175z"/>
<path d="M1120 308 l0 -113 -48 105 c-45 99 -50 105 -80 108 l-32 3 0 -170 0
-171 30 0 30 0 1 108 0 107 52 -102 c47 -93 54 -103 79 -103 l28 0 0 170 0
170 -30 0 -30 0 0 -112z"/>
<path d="M1260 240 l0 -170 38 0 c58 0 109 18 147 52 31 26 35 36 35 77 0 45
-3 49 -83 129 -63 62 -89 82 -110 82 l-27 0 0 -170z m176 -23 c11 -35 -56 -97
-106 -97 -6 0 -10 42 -10 112 l0 112 55 -54 c30 -30 58 -63 61 -73z"/>
<path d="M1567 403 c-4 -3 -7 -82 -7 -175 l0 -168 30 0 30 0 0 80 c0 105 17
107 64 5 30 -65 38 -75 60 -75 14 0 26 2 26 4 0 2 -15 37 -34 77 l-35 74 25
26 c48 51 20 100 -80 138 -62 23 -69 24 -79 14z"/>
</g>
</svg>
